USFL
nRows=157
nColumns=2
inDegrees=yes
endheader
time	med_gas_r	
4.18723	 53.118775	
4.24973	 53.140138	
4.31222	 53.150656	
4.37472	 53.192549	
4.43722	 53.189827	
4.49971	 53.280837	
4.56221	 53.369279	
4.6247	 53.397817	
4.6872	 53.415688	
4.7497	 53.437397	
4.81219	 53.450671	
4.87469	 53.501452	
4.93718	 53.592438	
4.99968	 53.605473	
5.06218	 53.514282	
5.12467	 53.307555	
5.18717	 53.160182	
5.24966	 53.184093	
5.31216	 53.226635	
5.37466	 53.206806	
5.43715	 49.131359	
5.49965	 49.148141	
5.56214	 49.174068	
5.62464	 49.227166	
5.68714	 47.749947	
5.74963	 47.639795	
5.81213	 47.803270	
5.87462	 47.339820	
5.93712	 47.333973	
5.99962	 47.403002	
6.06211	 47.451947	
6.12461	 47.378766	
6.1871	 47.515026	
6.2496	 46.265529	
6.3121	 46.290489	
6.37459	 46.372269	
6.43709	 46.346929	
6.49958	 46.368625	
6.56208	 46.446893	
6.62458	 46.426898	
6.68707	 46.365584	
6.74957	 46.431467	
6.81206	 46.470112	
6.87456	 46.419077	
6.93706	 46.471680	
6.99955	 46.508090	
7.06205	 46.573432	
7.12454	 46.556733	
7.18704	 46.617761	
7.24954	 46.643898	
7.31203	 46.646843	
7.37453	 46.695654	
7.43702	 46.653318	
7.49952	 46.594392	
7.56202	 46.534187	
7.62451	 46.470236	
7.68701	 46.473079	
7.7495	 46.415431	
7.812	 46.417032	
7.8745	 46.399654	
7.93699	 46.220881	
7.99949	 46.137865	
8.06198	 46.195237	
8.12448	 46.208886	
8.18698	 46.226145	
8.24947	 46.302324	
8.31197	 46.327966	
8.37446	 46.298378	
8.43696	 46.213512	
8.49946	 46.169523	
8.56195	 46.204896	
8.62445	 45.963894	
8.68694	 45.925011	
8.74944	 45.997783	
8.81194	 45.938619	
8.87443	 45.906246	
8.93693	 45.917102	
8.99942	 45.838456	
9.06192	 45.874072	
9.12442	 45.874214	
9.18691	 45.823520	
9.24941	 45.748753	
9.3119	 45.789494	
9.3744	 45.680723	
9.4369	 45.719147	
9.49939	 45.816694	
9.56189	 45.731457	
9.62438	 45.753379	
9.68688	 45.753687	
9.74938	 45.838196	
9.81187	 45.835475	
9.87437	 45.838592	
9.93686	 45.893292	
9.99936	 46.017425	
10.0619	 46.067494	
10.1244	 46.100599	
10.1868	 46.161018	
10.2493	 46.177539	
10.3118	 46.182193	
10.3743	 46.089134	
10.4368	 46.024759	
10.4993	 45.935193	
10.5618	 45.764858	
10.6243	 45.684814	
10.6868	 45.627228	
10.7493	 45.622805	
10.8118	 45.598373	
10.8743	 45.636742	
10.9368	 45.719600	
10.9993	 45.764856	
11.0618	 45.832142	
11.1243	 45.665573	
11.1868	 45.629815	
11.2493	 45.632111	
11.3118	 45.595942	
11.3743	 45.463162	
11.4368	 45.556154	
11.4993	 45.646374	
11.5618	 45.576687	
11.6243	 45.705318	
11.6868	 45.703720	
11.7492	 45.681927	
11.8117	 45.719449	
11.8742	 45.602319	
11.9367	 45.518140	
11.9992	 45.492923	
12.0617	 45.441399	
12.1242	 45.454862	
12.1867	 45.408907	
12.2492	 45.426365	
12.3117	 45.460618	
12.3742	 45.472768	
12.4367	 45.492881	
12.4992	 45.489316	
12.5617	 45.494924	
12.6242	 45.429175	
12.6867	 45.402954	
12.7492	 45.437021	
12.8117	 45.477452	
12.8742	 45.503071	
12.9367	 45.502351	
12.9992	 45.466434	
13.0617	 45.486833	
13.1242	 45.486636	
13.1867	 45.518760	
13.2492	 45.517066	
13.3116	 45.570264	
13.3741	 45.617394	
13.4366	 45.559533	
13.4991	 45.597728	
13.5616	 45.577146	
13.6241	 45.528558	
13.6866	 45.562561	
13.7491	 45.544483	
13.8116	 45.538125	
13.8741	 45.583420	
13.9366	 45.590630	
